<?xml version="1.0" encoding="UTF-8" standalone="no"?>
<!-- Generator: Adobe Illustrator 27.5.0, SVG Export Plug-In . SVG Version: 6.00 Build 0)  -->

<svg
   version="1.1"
   x="0px"
   y="0px"
   viewBox="0 0 2200 2200"
   style="enable-background:new 0 0 2200 2200;"
   xml:space="preserve"
   id="svg252"
   sodipodi:docname="sparks2.svg"
   inkscape:version="1.2.2 (b0a8486541, 2022-12-01)"
   xmlns:inkscape="http://www.inkscape.org/namespaces/inkscape"
   xmlns:sodipodi="http://sodipodi.sourceforge.net/DTD/sodipodi-0.dtd"
   xmlns="http://www.w3.org/2000/svg"
   xmlns:svg="http://www.w3.org/2000/svg"><defs
   id="defs256"><filter
     style="color-interpolation-filters:sRGB;"
     inkscape:label="Blur"
     id="filter442"
     x="-0.068993852"
     y="-0.042015127"
     width="1.1379877"
     height="1.0840303"><feGaussianBlur
       stdDeviation="14 2"
       result="fbSourceGraphic"
       id="feGaussianBlur440" /><feColorMatrix
       result="fbSourceGraphicAlpha"
       in="fbSourceGraphic"
       values="0 0 0 -1 0 0 0 0 -1 0 0 0 0 -1 0 0 0 0 1 0"
       id="feColorMatrix444" /><feGaussianBlur
       id="feGaussianBlur446"
       stdDeviation="14 14"
       result="fbSourceGraphic"
       in="fbSourceGraphic" /><feColorMatrix
       result="fbSourceGraphicAlpha"
       in="fbSourceGraphic"
       values="0 0 0 -1 0 0 0 0 -1 0 0 0 0 -1 0 0 0 0 1 0"
       id="feColorMatrix448" /><feGaussianBlur
       id="feGaussianBlur450"
       stdDeviation="14 14"
       result="blur"
       in="fbSourceGraphic" /></filter></defs><sodipodi:namedview
   id="namedview254"
   pagecolor="#ffffff"
   bordercolor="#000000"
   borderopacity="0.25"
   inkscape:showpageshadow="2"
   inkscape:pageopacity="0.0"
   inkscape:pagecheckerboard="0"
   inkscape:deskcolor="#d1d1d1"
   showgrid="false"
   inkscape:zoom="0.395"
   inkscape:cx="1070.8861"
   inkscape:cy="1098.7342"
   inkscape:window-width="1920"
   inkscape:window-height="1048"
   inkscape:window-x="1920"
   inkscape:window-y="7"
   inkscape:window-maximized="1"
   inkscape:current-layer="svg252" />
<g
   id="background">
	<rect
   style="fill:transparent;"
   width="2200"
   height="2200"
   id="rect238" />
</g>
<g
   id="Objects"
   style="filter:url(#filter442)">
	<g
   id="g249">
		<path
   style="fill:#ffffff;"
   d="M1630.405,1383.827c-340.315,87.588-421.916,177.769-498.901,559.878    c-3.527,17.506-28.536,17.506-32.063,0c-76.985-382.108-158.586-472.289-498.901-559.878c-16.36-4.211-16.36-27.461,0-31.672    c340.315-87.588,421.915-177.769,498.901-559.878c3.527-17.506,28.536-17.506,32.063,0    c76.985,382.108,158.586,472.289,498.901,559.878C1646.766,1356.366,1646.766,1379.617,1630.405,1383.827z"
   id="path241" />
		<path
   style="fill:#ffffff;"
   d="M785.898,773.185c-135.977,34.997-168.582,71.03-199.342,223.706    c-1.409,6.995-11.402,6.995-12.811,0c-30.761-152.676-63.365-188.709-199.342-223.706c-6.537-1.682-6.537-10.972,0-12.655    c135.977-34.997,168.582-71.03,199.342-223.706c1.409-6.995,11.402-6.995,12.811,0C617.317,689.5,649.921,725.533,785.898,760.53    C792.435,762.213,792.435,771.503,785.898,773.185z"
   id="path243" />
		<path
   style="fill:#ffffff;"
   d="M1225.179,352.034c-61.271,15.77-75.963,32.006-89.824,100.802c-0.635,3.152-5.138,3.152-5.773,0    c-13.861-68.796-28.552-85.033-89.824-100.802c-2.946-0.758-2.946-4.944,0-5.702c61.271-15.77,75.963-32.006,89.824-100.802    c0.635-3.152,5.138-3.152,5.773,0c13.861,68.796,28.552,85.033,89.824,100.802C1228.125,347.09,1228.125,351.276,1225.179,352.034    z"
   id="path245" />
		<path
   style="fill:#ffffff;"
   d="M1827.344,775.759c-87.523,22.526-108.509,45.719-128.308,143.99c-0.907,4.502-7.339,4.502-8.246,0    c-19.799-98.271-40.785-121.464-128.308-143.99c-4.208-1.083-4.208-7.063,0-8.145c87.523-22.526,108.509-45.719,128.308-143.99    c0.907-4.502,7.339-4.502,8.246,0c19.799,98.271,40.785,121.464,128.308,143.99    C1831.552,768.697,1831.552,774.676,1827.344,775.759z"
   id="path247" />
	</g>
</g>
</svg>
